<svg xmlns="http://www.w3.org/2000/svg" version="1.1" xmlns:xlink="http://www.w3.org/1999/xlink" xmlns:svgjs="http://svgjs.com/svgjs" width="512" height="512" x="0" y="0" viewBox="0 0 24 24" style="enable-background:new 0 0 512 512" xml:space="preserve" class=""><g><path fill="#000000" fill-rule="evenodd" d="M10.321 1.36a4.105 4.105 0 0 1 3.358 0c.731.328 1.263.96 1.745 1.698.482.738 1.012 1.743 1.672 2.996l4.227 8.021c.547 1.038.99 1.88 1.275 2.572.288.7.481 1.396.37 2.108a3.793 3.793 0 0 1-1.667 2.571c-.594.394-1.307.54-2.087.607-.773.067-1.76.067-2.988.067H7.774c-1.228 0-2.215 0-2.988-.067-.78-.068-1.493-.213-2.087-.607a3.794 3.794 0 0 1-1.667-2.57c-.111-.713.082-1.41.37-2.109.284-.691.728-1.534 1.275-2.571l4.227-8.022c.66-1.253 1.19-2.258 1.671-2.996.483-.739 1.014-1.37 1.746-1.699zm2.537 1.823a2.105 2.105 0 0 0-1.716 0c-.191.086-.462.31-.892.968-.424.65-.91 1.571-1.602 2.883l-4.177 7.928c-.577 1.095-.976 1.853-1.22 2.447-.245.596-.268.876-.243 1.039.074.476.354.918.797 1.212.17.112.474.221 1.154.28.676.06 1.576.06 2.863.06h8.355c1.288 0 2.188 0 2.864-.06.68-.059.984-.168 1.154-.28.443-.294.723-.736.797-1.212.025-.163.002-.443-.243-1.04-.244-.593-.643-1.351-1.22-2.446l-4.177-7.928c-.691-1.312-1.178-2.232-1.602-2.883-.43-.658-.7-.882-.892-.968zM11.995 8A1 1 0 0 1 13 8.996l.022 5a1 1 0 1 1-2 .008l-.022-5A1 1 0 0 1 11.996 8zM12 16a1 1 0 0 1 1 1v.01a1 1 0 0 1-2 0V17a1 1 0 0 1 1-1z" clip-rule="evenodd" data-original="#000000"></path></g></svg>