<svg xmlns="http://www.w3.org/2000/svg" version="1.1" xmlns:xlink="http://www.w3.org/1999/xlink" xmlns:svgjs="http://svgjs.com/svgjs" width="512" height="512" x="0" y="0" viewBox="0 0 512 512" style="enable-background:new 0 0 512 512" xml:space="preserve" class=""><g><path d="M497 0H15C6.715 0 0 6.715 0 15s6.715 15 15 15h17.133v300.102l28.797-15.508C167.023 257.464 234.727 149.504 240.582 30h30.809c5.855 119.504 73.558 227.465 179.656 284.594l28.793 15.508V30H497c8.285 0 15-6.715 15-15s-6.715-15-15-15zM87.89 370.293l-24.355-23.027-31.43 16.925-.3 132.774a14.997 14.997 0 0 0 4.382 10.629A14.995 14.995 0 0 0 46.806 512h80.664c8.281 0 15-6.723 15-15.004 0-47.73-19.895-93.91-54.578-126.703zM448.438 347.266l-24.356 23.027c-34.684 32.793-54.574 78.973-54.574 126.703 0 8.281 6.715 15.004 15 15.004h80.66c3.984 0 7.805-1.586 10.617-4.406a14.997 14.997 0 0 0 4.383-10.63l-.3-132.773zm0 0" fill="#000000" data-original="#000000" class=""></path></g></svg>