<svg xmlns="http://www.w3.org/2000/svg" version="1.1" xmlns:xlink="http://www.w3.org/1999/xlink" xmlns:svgjs="http://svgjs.com/svgjs" width="512" height="512" x="0" y="0" viewBox="0 0 512 512" style="enable-background:new 0 0 512 512" xml:space="preserve" class=""><g><path d="M45.95 331h94.63l3.78-2.52c12.332-8.191 6.485-27.48-8.31-27.48H95.54l48.82-32.52c12.332-8.191 6.485-27.48-8.31-27.48H95.54l48.82-32.52c12.332-8.191 6.485-27.48-8.31-27.48H41.42l-3.78 2.52C25.309 191.711 31.155 211 45.95 211h40.51l-48.82 32.52C25.309 251.711 31.155 271 45.95 271h40.51l-48.82 32.52C25.309 311.711 31.155 331 45.95 331zM210.95 331h94.63l3.78-2.52c12.332-8.191 6.485-27.48-8.31-27.48h-40.51l48.82-32.52c12.332-8.191 6.485-27.48-8.31-27.48h-40.51l48.82-32.52c12.332-8.191 6.485-27.48-8.31-27.48h-94.63l-3.78 2.52c-12.332 8.191-6.485 27.48 8.31 27.48h40.51l-48.82 32.52c-12.332 8.191-6.485 27.48 8.31 27.48h40.51l-48.82 32.52c-12.331 8.191-6.485 27.48 8.31 27.48zM374.95 331h94.63l3.78-2.52c12.332-8.191 6.485-27.48-8.31-27.48h-40.51l48.82-32.52c12.332-8.191 6.485-27.48-8.31-27.48h-40.51l48.82-32.52c12.332-8.191 6.485-27.48-8.31-27.48h-94.63l-3.78 2.52c-12.332 8.191-6.485 27.48 8.31 27.48h40.51l-48.82 32.52c-12.332 8.191-6.485 27.48 8.31 27.48h40.51l-48.82 32.52c-12.331 8.191-6.485 27.48 8.31 27.48zM477 0H35C15.701 0 0 15.701 0 35v25h512V35c0-19.299-15.701-35-35-35zM0 115c0 19.299 15.701 35 35 35h442c19.299 0 35-15.701 35-35V90H0zM477 362H35c-19.299 0-35 15.701-35 35v25h512v-25c0-19.299-15.701-35-35-35zM0 477c0 19.299 15.701 35 35 35h442c19.299 0 35-15.701 35-35v-25H0z" fill="#000000" data-original="#000000" class=""></path></g></svg>