<svg xmlns="http://www.w3.org/2000/svg" version="1.1" xmlns:xlink="http://www.w3.org/1999/xlink" xmlns:svgjs="http://svgjs.com/svgjs" width="512" height="512" x="0" y="0" viewBox="0 0 512 512" style="enable-background:new 0 0 512 512" xml:space="preserve" class=""><g><path d="M494.601 67.065H17.399C7.79 67.065 0 74.855 0 84.464v259.371c0 9.609 7.79 17.399 17.399 17.399h477.202c9.609 0 17.399-7.79 17.399-17.399V84.464c0-9.609-7.79-17.399-17.399-17.399zM355.423 414.75h-59.069v-23.331h-80.708v23.331h-59.07c-8.335 0-15.093 6.757-15.093 15.093 0 8.335 6.757 15.093 15.093 15.093h198.847c8.335 0 15.093-6.757 15.093-15.093 0-8.335-6.757-15.093-15.093-15.093z" fill="#000000" data-original="#000000" class=""></path></g></svg>