<svg xmlns="http://www.w3.org/2000/svg" version="1.1" xmlns:xlink="http://www.w3.org/1999/xlink" xmlns:svgjs="http://svgjs.com/svgjs" width="512" height="512" x="0" y="0" viewBox="0 0 511.48 511.48" style="enable-background:new 0 0 512 512" xml:space="preserve" class=""><g><path d="M394.698 270.767c-38.016-33.125-86.023-51.198-136.787-51.198-50.792 0-100.613 19.896-138.97 53.389-6.337 5.533-6.69 15.322-.762 21.297l36.248 36.53c5.239 5.28 13.599 5.711 19.329.978 47.763-39.449 118.424-41.139 166.175-2.111 5.73 4.683 14.049 4.228 19.266-1.029l36.27-36.552c5.933-5.977 5.577-15.775-.769-21.304z" fill="#000000" data-original="#000000" class=""></path><path d="M506.881 177.62c-32.862-30.608-70.399-54.647-111.778-71.557-44.385-18.138-91.273-27.336-139.362-27.336s-94.977 9.197-139.363 27.336C74.999 122.973 37.461 147.012 4.6 177.62c-6.001 5.589-6.139 15.111-.361 20.933l36.141 36.423c5.444 5.486 14.212 5.711 19.901.484 53.584-49.229 122.466-76.179 195.459-76.179s141.875 26.95 195.459 76.179c5.69 5.227 14.458 5.002 19.901-.484l36.141-36.423c5.779-5.822 5.641-15.343-.36-20.933z" fill="#000000" data-original="#000000" class=""></path><ellipse cx="255.74" cy="392.661" rx="39.783" ry="40.092" fill="#000000" data-original="#000000" class=""></ellipse></g></svg>